<?xml version="1.0" encoding="utf-8"?>
<!-- Generator: Adobe Illustrator 16.0.0, SVG Export Plug-In . SVG Version: 6.00 Build 0)  -->
<!DOCTYPE svg PUBLIC "-//W3C//DTD SVG 1.1//EN" "http://www.w3.org/Graphics/SVG/1.1/DTD/svg11.dtd">
<svg version="1.1" id="Layer_1" xmlns="http://www.w3.org/2000/svg" xmlns:xlink="http://www.w3.org/1999/xlink" x="0px" y="0px"
	 width="101px" height="33px" viewBox="0 0 101 33" enable-background="new 0 0 101 33" xml:space="preserve">
<g>
	<path fill="#787878" d="M40,22.479h2.148c0.03,1.172,0.88,1.973,2.1,1.973c1.436,0,2.217-0.86,2.217-2.471V12h2.187v9.99
		c0,2.793-1.64,4.414-4.384,4.414C41.728,26.404,40,24.822,40,22.479z M59.834,15.819v10.273h-2.021v-1.738h-0.049
		c-0.566,1.23-1.611,1.924-3.184,1.924c-2.236,0-3.603-1.455-3.603-3.809v-6.65h2.109v6.24c0,1.562,0.742,2.402,2.197,2.402
		c1.523,0,2.441-1.055,2.441-2.656v-5.987L59.834,15.819L59.834,15.819z M61.729,18.729c0-1.835,1.602-3.096,3.965-3.096
		c2.393,0,3.945,1.328,4.014,3.223h-1.982c-0.117-0.996-0.85-1.621-2.031-1.621c-1.143,0-1.904,0.557-1.904,1.377
		c0,0.645,0.469,1.084,1.582,1.338l1.67,0.381c2.1,0.488,2.9,1.309,2.9,2.793c0,1.875-1.748,3.164-4.17,3.164
		c-2.568,0-4.11-1.26-4.307-3.213h2.09c0.195,1.074,0.928,1.602,2.217,1.602c1.27,0,2.051-0.527,2.051-1.367
		c0-0.664-0.381-1.055-1.504-1.309l-1.67-0.391C62.695,21.16,61.729,20.223,61.729,18.729L61.729,18.729z M72.188,13.387h2.119
		v2.431h1.953v1.67h-1.953v5.664c0,0.889,0.391,1.289,1.25,1.289c0.215,0,0.557-0.02,0.693-0.049v1.67
		c-0.234,0.06-0.703,0.098-1.172,0.098c-2.08,0-2.891-0.79-2.891-2.773v-5.898h-1.494v-1.67h1.494V13.387z M78.242,12h4.97
		c4.19,0,6.67,2.578,6.67,7.021c0,4.453-2.47,7.069-6.67,7.069h-4.97V12z M80.43,13.885v10.312h2.578
		c2.988,0,4.639-1.826,4.639-5.156c0-3.32-1.66-5.156-4.639-5.156H80.43z M96.133,26.287c-2.939,0-4.873-2.021-4.873-5.332
		c0-3.3,1.943-5.322,4.873-5.322s4.873,2.021,4.873,5.322C101.006,24.266,99.072,26.287,96.133,26.287z M96.133,24.549
		c1.66,0,2.725-1.309,2.725-3.594c0-2.275-1.074-3.584-2.725-3.584s-2.725,1.309-2.725,3.584
		C93.408,23.24,94.482,24.549,96.133,24.549z"/>
	<g>
		<path fill="#FC7242" d="M2.392,12.137c2.462-2.463,6.455-2.463,8.918,0l11.838,11.839l-8.917,8.918L2.392,21.055
			C-0.071,18.592-0.071,14.6,2.392,12.137z"/>
		<path fill="#FF906A" d="M5.22,14.966c2.462-2.462,6.455-2.462,8.918,0l9.01,9.011l-8.917,8.918l-9.01-9.011
			C2.758,21.422,2.758,17.429,5.22,14.966L5.22,14.966z"/>
		<path fill="#F5A623" d="M35.935,2.272c2.462,2.462,2.462,6.456,0,8.918L14.231,32.895l-8.918-8.918L27.017,2.272
			C29.479-0.19,33.472-0.19,35.935,2.272z"/>
		<path fill="#FFC100" d="M23.241,14.966c2.462,2.463,2.462,6.454,0,8.917l-9.01,9.01l-8.918-8.916l9.01-9.011
			C16.786,12.503,20.778,12.503,23.241,14.966z"/>
	</g>
</g>
<image overflow="visible" width="283" height="101" xlink:href="../../../../../../Users/fer/Documents/Gestor-Basicum/logobasicum.jpg"  transform="matrix(0.4081 0 0 0.4158 -7 -5)">
</image>
</svg>
